<svg id="Layer_1" data-name="Layer 1" xmlns="http://www.w3.org/2000/svg" viewBox="0 0 73 73"><title>icon</title><path d="M19,31a8.2,8.2,0,1,0-8.2-8.2A8.2,8.2,0,0,0,19,31Zm0-12.7a4.5,4.5,0,1,1-4.5,4.5h0A4.61,4.61,0,0,1,19,18.25ZM68,4.45H4.85A4.8,4.8,0,0,0,0,9.25H0v54.5a4.8,4.8,0,0,0,4.8,4.8h63.3a4.8,4.8,0,0,0,4.8-4.8h0V9.25A5,5,0,0,0,68,4.45Zm1.1,51.8H14.45L25.85,41l7.2,6.7a2,2,0,0,0,1.5.5,1.83,1.83,0,0,0,1.3-.8L54,21.55l15.1,16.9ZM4.85,8.15h63.3a1.11,1.11,0,0,1,1.1,1.1v23.5l-13.9-15.5a2,2,0,0,0-1.5-.6,1.6,1.6,0,0,0-1.4.8L34,43.55,26.85,37a1.87,1.87,0,0,0-1.4-.5,1.71,1.71,0,0,0-1.3.7l-14.3,19H3.75v-47A1.1,1.1,0,0,1,4.85,8.15ZM68,64.85H4.85a1.11,1.11,0,0,1-1.1-1.1V60h65.4v3.8A1.11,1.11,0,0,1,68,64.85Z"/></svg>