<svg id="Layer_1" data-name="Layer 1" xmlns="http://www.w3.org/2000/svg" viewBox="0 0 72.9 64.1"><title>icon</title><path d="M19,26.5a8.2,8.2,0,1,0-8.2-8.2A8.24,8.24,0,0,0,19,26.5Zm0-12.7a4.5,4.5,0,1,1-4.5,4.5A4.61,4.61,0,0,1,19,13.8ZM68,0H4.8A4.8,4.8,0,0,0,0,4.8V59.3a4.8,4.8,0,0,0,4.8,4.8H68.1a4.8,4.8,0,0,0,4.8-4.8V4.8A5,5,0,0,0,68,0Zm1.1,51.8H14.4L25.8,36.6,33,43.3a2,2,0,0,0,1.5.5,1.83,1.83,0,0,0,1.3-.8L54,17.1,69.1,34ZM4.8,3.7H68.1a1.11,1.11,0,0,1,1.1,1.1V28.3L55.3,12.8a2,2,0,0,0-1.5-.6,1.6,1.6,0,0,0-1.4.8L34,39.1l-7.2-6.6a1.87,1.87,0,0,0-1.4-.5,1.71,1.71,0,0,0-1.3.7L9.8,51.7H3.7V4.7A1.1,1.1,0,0,1,4.8,3.7ZM68,60.4H4.8a1.11,1.11,0,0,1-1.1-1.1V55.5H69.1v3.8A1.11,1.11,0,0,1,68,60.4Z"/></svg>